<svg xmlns="http://www.w3.org/2000/svg" xmlns:xlink="http://www.w3.org/1999/xlink" viewBox="0 0 4680 3120"><defs><style>.cls-1{fill:#0f2e6d;}.cls-2{fill:#ffaca6;}.cls-3{fill:#153077;}.cls-4{fill:#ffab00;}.cls-5{fill:#0542bf;}.cls-6{fill:#fff;}.cls-7{fill:#2b3033;}.cls-8{fill:#a3a7aa;}.cls-9{fill:#7bbdff;}.cls-10,.cls-17{fill:#daebff;}.cls-11{fill:#054aa9;}.cls-12,.cls-16,.cls-22,.cls-39{fill:none;}.cls-12{stroke:#de4d30;}.cls-12,.cls-22,.cls-39{stroke-linecap:round;stroke-linejoin:round;}.cls-12,.cls-39{stroke-width:2px;}.cls-13{fill:#ebf5ff;}.cls-14{fill:#d3e2f9;}.cls-15,.cls-18{fill:#b0d8ff;}.cls-17,.cls-18{fill-rule:evenodd;}.cls-19{fill:#006dfe;}.cls-20{fill:url(#linear-gradient);}.cls-21{fill:#7bbaff;}.cls-22{stroke:#7bbaff;stroke-width:6px;}.cls-23{fill:#4385f5;}.cls-24{fill:#2838ad;}.cls-25{fill:#2c357c;}.cls-26{fill:#191e56;}.cls-27{fill:#ea756c;}.cls-28{clip-path:url(#clip-path);}.cls-29{fill:#0b2551;}.cls-30{clip-path:url(#clip-path-2);}.cls-31{fill:#fe8e00;}.cls-32{clip-path:url(#clip-path-3);}.cls-33{fill:#0e2760;}.cls-34{clip-path:url(#clip-path-4);}.cls-35{clip-path:url(#clip-path-5);}.cls-36{fill:#0e58dd;}.cls-37{fill:#00b77b;}.cls-38{fill:#00d967;}.cls-39{stroke:#fff;}.cls-40{fill:#053da0;}.cls-41{fill:#172272;}.cls-42{fill:#1e2889;}.cls-43{fill:#293272;}</style><linearGradient id="linear-gradient" x1="1402.56" y1="1126.71" x2="3070.01" y2="1126.71" gradientUnits="userSpaceOnUse"><stop offset="0" stop-color="#b0d8ff"/><stop offset="0.02" stop-color="#b3d9ff"/><stop offset="0.15" stop-color="#c4e1ff"/><stop offset="0.3" stop-color="#d1e7ff"/><stop offset="0.51" stop-color="#d8eaff"/><stop offset="1" stop-color="#daebff"/></linearGradient><clipPath id="clip-path"><path class="cls-1" d="M1402.69,1019.18l5-10.27s44.72-24.18,39.08-88.1c0,0-64.58,14.13-104.33,3.25s-94.4,4.7-103,38.48c0,0-40.58,8-46.54,49.69s18.38,110.3,48.69,142.09,64.59,30.81,84.46,25.84,20.7-15.57,20.7-15.57l24.18-21.86Z"/></clipPath><clipPath id="clip-path-2"><path class="cls-2" d="M1407.66,1008.91s18.88,63.27,13.25,109.31-21.2,86.78-59,59.62c-13.58-11.59-15.24-13.25-15.24-13.25s11.27-18.88,9.28-42.39c0,0-21.2-7.62-16.56-26.83s17.88-24.52,26.49-17.56c0,0-3-33.45,3.32-43.39S1407.66,1008.91,1407.66,1008.91Z"/></clipPath><clipPath id="clip-path-3"><path class="cls-3" d="M1542.1,1797.62l25.2,7.45s150.51,1.47,198,4.5c67.14,4.28,179.08-2.7,164.62,112.48-9.38,74.67-83.12,384.8-83.12,384.8s-33.94,20.23-91.39-5.95c0,0,32-248.41,31.49-295.86s-83.69-39.8-194.37-27.19c-101.68,11.58-261.22,13.07-311.64-34Z"/></clipPath><clipPath id="clip-path-4"><path class="cls-4" d="M1285.9,1261.21h-12.68s-75.81,5.93-86.6,69.06-8.8,236-8,265.46,1.53,189.2,32.46,260.42,68.34,94.41,155.39,97.56,173.37-.44,203.59-111.23-32.7-124.61-32.7-124.61-24.85-104.88-22-150.2c0,0,37.46,86.58,80.62,101.68s96-33.92,96-33.92,8.7-80.19-29.39-94.59c0,0-28.84,3.46-40.77-1.67-11.22-4.82-29.18-48.12-56.29-133.9s-48.87-113.13-83.94-126.08-86.33-18-86.33-18Z"/></clipPath><clipPath id="clip-path-5"><path class="cls-5" d="M1526.81,1986.85s6.3-29.7,5.4-117.89-28.8-90.89-92.69-90-217.77,25.2-252-21.59-63-191.68-71.09-242.07-26.1-194.38-34.2-262.77-14.39-185.37-113.38-151.18,6.3,553.43,18.9,613.72,48.59,276.69,159.28,280.53S1526.81,1986.85,1526.81,1986.85Z"/></clipPath></defs><title>04</title><g id="Layer_2" data-name="Layer 2"><g id="Layer_1-2" data-name="Layer 1"><rect class="cls-6" width="4680" height="3120"/><path class="cls-7" d="M1864.25,2883.23v-64h19.69a29.84,29.84,0,0,1,15.09,3.8,26.5,26.5,0,0,1,10.4,10.81,33.33,33.33,0,0,1,3.73,15.93v2.94a33.41,33.41,0,0,1-3.67,15.87,26.12,26.12,0,0,1-10.35,10.76,30.09,30.09,0,0,1-15.07,3.87Zm13.18-53.3v42.71h6.38q7.73,0,11.82-5t4.17-14.46v-3.38q0-9.77-4-14.79t-11.82-5Z"/><path class="cls-7" d="M1957.94,2870.05h-23.11l-4.4,13.18h-14l23.82-64h12.22l24,64h-14Zm-19.55-10.68h16l-8-23.95Z"/><path class="cls-7" d="M2025.27,2829.93h-19.6v53.3h-13.19v-53.3h-19.33v-10.68h52.12Z"/><path class="cls-7" d="M2063.63,2870.05h-23.12l-4.39,13.18h-14l23.82-64h12.22l24,64h-14Zm-19.56-10.68h16l-8-23.95Z"/><path class="cls-7" d="M2088.06,2883.23v-64h22.42q11.64,0,17.66,4.46t6,13.07a14.42,14.42,0,0,1-2.41,8.28,14.07,14.07,0,0,1-6.73,5.26,13.51,13.51,0,0,1,7.76,5,14.68,14.68,0,0,1,2.83,9.14q0,9.24-5.89,14t-16.78,4.83Zm13.19-37.18H2111q10-.16,10-8,0-4.35-2.53-6.26c-1.68-1.28-4.34-1.91-8-1.91h-9.23Zm0,9.32v17.27h11.29q4.66,0,7.27-2.22a7.59,7.59,0,0,0,2.62-6.13q0-8.79-9.1-8.92Z"/><path class="cls-7" d="M2181.62,2870.05h-23.11l-4.4,13.18h-14l23.82-64h12.22l23.95,64h-14Zm-19.55-10.68h16l-8-23.95Z"/><path class="cls-7" d="M2239.24,2866.44a6.75,6.75,0,0,0-2.64-5.73q-2.64-2-9.49-4.22a68.14,68.14,0,0,1-10.86-4.37q-10.89-5.89-10.9-15.87a15.46,15.46,0,0,1,2.93-9.25,19,19,0,0,1,8.39-6.35,31.65,31.65,0,0,1,12.28-2.28,28.87,28.87,0,0,1,12.22,2.48,19.52,19.52,0,0,1,8.33,7,18.41,18.41,0,0,1,3,10.28h-13.18a8.61,8.61,0,0,0-2.77-6.83c-1.84-1.63-4.44-2.44-7.78-2.44s-5.73.68-7.51,2a6.45,6.45,0,0,0-2.68,5.39,6.16,6.16,0,0,0,3.14,5.23,35.67,35.67,0,0,0,9.25,3.95q11.25,3.39,16.39,8.4a16.71,16.71,0,0,1,5.14,12.48,15.4,15.4,0,0,1-6.28,13q-6.29,4.72-16.92,4.72a32.74,32.74,0,0,1-13.45-2.7,21.29,21.29,0,0,1-9.25-7.41,19,19,0,0,1-3.18-10.9h13.22q0,10.61,12.66,10.6a12.29,12.29,0,0,0,7.34-1.92A6.21,6.21,0,0,0,2239.24,2866.44Z"/><path class="cls-7" d="M2299.88,2855.41h-25.31v17.23h29.7v10.59h-42.89v-64h42.81v10.68h-29.62v15.25h25.31Z"/><path class="cls-7" d="M2334.42,2883.23v-64h19.69a29.81,29.81,0,0,1,15.09,3.8,26.5,26.5,0,0,1,10.4,10.81,33.33,33.33,0,0,1,3.73,15.93v2.94a33.41,33.41,0,0,1-3.67,15.87,26.12,26.12,0,0,1-10.35,10.76,30.09,30.09,0,0,1-15.07,3.87Zm13.18-53.3v42.71H2354q7.72,0,11.82-5t4.17-14.46v-3.38q0-9.77-4-14.79t-11.82-5Z"/><path class="cls-7" d="M2431.41,2855.41H2406.1v17.23h29.7v10.59h-42.89v-64h42.8v10.68H2406.1v15.25h25.31Z"/><path class="cls-7" d="M2467.18,2867.37l14.5-48.12h14.68l-22.28,64h-13.76l-22.19-64h14.64Z"/><path class="cls-7" d="M2540.88,2855.41h-25.32v17.23h29.71v10.59h-42.89v-64h42.8v10.68h-29.62v15.25h25.32Z"/><path class="cls-7" d="M2566.19,2872.64h28v10.59H2553v-64h13.19Z"/><path class="cls-7" d="M2651.49,2852.69a38.74,38.74,0,0,1-3.34,16.57,25.18,25.18,0,0,1-9.56,11,28.25,28.25,0,0,1-28.46.05,25.36,25.36,0,0,1-9.66-10.92A37.49,37.49,0,0,1,2597,2853v-3.16a38.46,38.46,0,0,1,3.41-16.64,25.42,25.42,0,0,1,9.62-11,28.25,28.25,0,0,1,28.44,0,25.42,25.42,0,0,1,9.62,11,38.32,38.32,0,0,1,3.41,16.59Zm-13.36-2.9q0-10.07-3.61-15.29a12.73,12.73,0,0,0-20.52-.07q-3.6,5.16-3.65,15.14v3.12q0,9.79,3.61,15.2a12.61,12.61,0,0,0,20.56.2q3.57-5.21,3.61-15.18Z"/><path class="cls-7" d="M2674.25,2860.69v22.54h-13.18v-64h25a29,29,0,0,1,12.68,2.63,19.45,19.45,0,0,1,8.41,7.5,20.9,20.9,0,0,1,3,11q0,9.41-6.44,14.83t-17.82,5.43Zm0-10.68H2686q5.22,0,8-2.46a9,9,0,0,0,2.75-7,10.56,10.56,0,0,0-2.77-7.61,10.3,10.3,0,0,0-7.64-3h-12.09Z"/><path class="cls-7" d="M2757.61,2855.41H2732.3v17.23H2762v10.59h-42.89v-64h42.8v10.68H2732.3v15.25h25.31Z"/><path class="cls-7" d="M2793.43,2859.81h-10.5v23.42h-13.19v-64h23.78q11.34,0,17.49,5.05t6.15,14.28a19.66,19.66,0,0,1-2.83,10.92,19.33,19.33,0,0,1-8.6,7l13.85,26.15v.61h-14.15Zm-10.5-10.68h10.63c3.31,0,5.88-.84,7.69-2.53a9,9,0,0,0,2.73-7,9.68,9.68,0,0,0-2.57-7.12q-2.58-2.59-7.89-2.59h-10.59Z"/><path class="cls-8" d="M1853.19,2977.06l-12.66-33.82h3.4l10.78,29.83h.14l10.81-29.83H1869l-12.66,33.82Z"/><path class="cls-8" d="M1922,2977.06h-20.42v-33.82H1922v2.91h-17.23v12.16h16.36v2.86h-16.36v13H1922Z"/><path class="cls-8" d="M1954.85,2960.07c0-10.6,5.88-17.37,15.07-17.37,7.15,0,12.8,4.66,13.71,11.27h-3.21a10.4,10.4,0,0,0-10.5-8.29c-7.17,0-11.79,5.6-11.79,14.39s4.62,14.55,11.81,14.55c5.39,0,9.47-2.88,10.48-7.57h3.21c-1.19,6.59-6.37,10.55-13.71,10.55C1960.71,2977.6,1954.85,2970.78,1954.85,2960.07Z"/><path class="cls-8" d="M2024.52,2977.06v-30.91h-11.15v-2.91h25.55v2.91h-11.18v30.91Z"/><path class="cls-8" d="M2098.86,2960.16c0,10.71-5.93,17.44-15.37,17.44s-15.35-6.73-15.35-17.44,5.93-17.46,15.35-17.46S2098.86,2949.45,2098.86,2960.16Zm-27.44,0c0,8.86,4.66,14.46,12.07,14.46s12.09-5.6,12.09-14.46-4.69-14.48-12.09-14.48S2071.42,2951.28,2071.42,2960.16Z"/><path class="cls-8" d="M2135.82,2977.06h-3.19v-33.82h11.93c6.61,0,10.83,3.87,10.83,9.89a9.37,9.37,0,0,1-7.24,9.56l8.2,14.37h-3.75l-7.78-13.85h-9Zm0-16.69h8.48c4.93,0,7.78-2.62,7.78-7.15s-3-7.12-7.89-7.12h-8.37Z"/><path class="cls-8" d="M2228,2977.06v-33.82h3.19v33.82Z"/><path class="cls-8" d="M2286.46,2977.06h-20.13v-33.82h3.19v30.91h16.94Z"/><path class="cls-8" d="M2339.92,2977.06h-20.13v-33.82H2323v30.91h17Z"/><path class="cls-8" d="M2374.72,2965.06c0,5.67,3.7,9.56,9.89,9.56s9.89-3.89,9.89-9.56v-21.82h3.21v22c0,7.29-5,12.35-13.1,12.35s-13.08-5.06-13.08-12.35v-22h3.19Z"/><path class="cls-8" d="M2434.38,2967.87c.36,4.06,4.18,6.82,9.47,6.82,5.07,0,8.7-2.76,8.7-6.56,0-3.16-2.18-5-7.2-6.31l-4.19-1.07c-6.26-1.6-9-4.25-9-8.7,0-5.46,4.92-9.35,11.58-9.35s11.41,3.89,11.6,9.26h-3.21c-.3-3.82-3.68-6.35-8.48-6.35s-8.16,2.6-8.16,6.32c0,2.91,2.11,4.62,7.08,5.89l3.65.93c6.8,1.72,9.66,4.32,9.66,9,0,5.93-4.78,9.82-12.26,9.82-7.08,0-12-3.92-12.4-9.73Z"/><path class="cls-8" d="M2498,2977.06v-30.91h-11.16v-2.91h25.55v2.91H2501.2v30.91Z"/><path class="cls-8" d="M2548.4,2977.06h-3.19v-33.82h11.93c6.61,0,10.83,3.87,10.83,9.89a9.37,9.37,0,0,1-7.24,9.56l8.2,14.37h-3.75l-7.78-13.85h-9Zm0-16.69h8.48c4.93,0,7.79-2.62,7.79-7.15s-3-7.12-7.9-7.12h-8.37Z"/><path class="cls-8" d="M2620.7,2966.7h-14.2l-3.75,10.36h-3.4l12.65-33.82h3.19l12.63,33.82h-3.37Zm-13.24-2.77h12.28l-6.07-16.73h-.14Z"/><path class="cls-8" d="M2664.48,2977.06v-30.91h-11.16v-2.91h25.55v2.91h-11.18v30.91Z"/><path class="cls-8" d="M2711.7,2977.06v-33.82h3.18v33.82Z"/><path class="cls-8" d="M2779.38,2960.16c0,10.71-5.93,17.44-15.37,17.44s-15.36-6.73-15.36-17.44,5.93-17.46,15.36-17.46S2779.38,2949.45,2779.38,2960.16Zm-27.44,0c0,8.86,4.66,14.46,12.07,14.46s12.09-5.6,12.09-14.46-4.69-14.48-12.09-14.48S2751.94,2951.28,2751.94,2960.16Z"/><path class="cls-8" d="M2813.15,2977.06v-33.82h3.16l19.83,28.24h.17v-28.24h3.16v33.82h-3.09l-19.9-28.27h-.17v28.27Z"/><circle class="cls-9" cx="933.23" cy="887.37" r="223.83"/><circle class="cls-10" cx="933.23" cy="887.37" r="205.14"/><path class="cls-11" d="M933.23,893.79a6.45,6.45,0,0,1-4.32-1.67L817.6,790.88a6.42,6.42,0,0,1,8.63-9.5l107.09,97.39,82.37-72a6.42,6.42,0,1,1,8.45,9.67L937.46,892.2A6.41,6.41,0,0,1,933.23,893.79Z"/><rect class="cls-11" x="926.23" y="1044.34" width="13.44" height="35.29"/><rect class="cls-11" x="926.23" y="695.11" width="13.44" height="35.29"/><rect class="cls-11" x="751.62" y="869.73" width="13.44" height="35.29" transform="translate(1645.71 129.03) rotate(90)"/><rect class="cls-11" x="1100.85" y="869.73" width="13.44" height="35.29" transform="translate(1994.94 -220.2) rotate(90)"/><line class="cls-12" x1="933.23" y1="891.43" x2="987.57" y2="1054.84"/><circle class="cls-9" cx="933.23" cy="887.37" r="23.67"/><circle class="cls-4" cx="933.23" cy="887.37" r="13.94"/><rect class="cls-10" x="722.04" y="1859.25" width="164.42" height="72.7"/><rect class="cls-13" x="788.53" y="1931.95" width="164.42" height="72.7"/><ellipse class="cls-13" cx="1345.04" cy="2417.4" rx="260.97" ry="53.59"/><ellipse class="cls-13" cx="3194.17" cy="2367.74" rx="442.23" ry="53.59"/><ellipse class="cls-13" cx="1805.62" cy="2374.69" rx="219.72" ry="67.49"/><rect class="cls-14" x="702.22" y="2236.78" width="3190.37" height="18.2"/><rect class="cls-15" x="3203.48" y="546.46" width="621.12" height="894.1"/><rect class="cls-13" x="3214.65" y="557.09" width="602.12" height="870.76"/><polygon class="cls-10" points="3816.77 991.28 3519.77 991.28 3519.77 557.09 3506.3 557.09 3506.3 991.28 3214.66 991.28 3214.66 1007.46 3506.3 1007.46 3506.3 1427.85 3519.77 1427.85 3519.77 1007.46 3816.77 1007.46 3816.77 991.28"/><rect class="cls-16" x="3366.51" y="775.93" width="298.1" height="434.07"/><path class="cls-10" d="M3671.35,775.93h145.43v-8.1H3671.35V557.09h-6.74V767.83h-298.1V557.09h-6.74V767.83H3214.65v8.1h145.12V1210H3214.65v8.09h145.12v209.77h6.74V1218.08h298.1v209.77h6.74V1218.08h145.43V1210H3671.35ZM3664.61,1210h-298.1V775.93h298.1Z"/><path class="cls-10" d="M3511.68,557.09s-66.92,328.41-297,383.9c0,0,49.8,265.45,49.8,486.86h-49.8V557.09Z"/><path class="cls-10" d="M3519.94,557.09S3586.87,885.5,3817,941c0,0-49.8,265.45-49.8,486.86H3817V557.09Z"/><path class="cls-17" d="M2800.35,2092.24c-3.17-7-5.87-13.91-9.48-20.33-1.23-2.21-4.9-4.63-7.15-4.36-4.73.56-11.46-2.62-13.58,5.12-1.36,4.95-3.06,9.84-3.88,14.87-.93,5.78-3.74,7.83-9.4,6.77-3.48-.65-7-.83-11.08-1.27-.6-7.78-.73-15.23-2-22.48-.41-2.36-3.45-5.34-5.87-6-4.36-1.26-9.41-5.8-13.64.6-3,4.49-6.31,8.76-9.05,13.38-2.28,3.86-4.65,4.57-8.77,2.64-14.57-6.82-11.56-3.74-9-17.76.28-1.51.87-3,1.23-4.45,2-8-3.61-16.48-11.7-17.29-1.68-.16-3.7,1.27-5.28,2.37-2.74,1.89-5.24,4.12-7.87,6.17s-5.27,4-8.73,6.68c-3.73-3.31-7.8-6.36-11-10.13-1.13-1.31-.84-4.7,0-6.63,1.51-3.48,3.94-6.57,6-9.84,5.6-9.11,4.94-13.64-3.44-20.36-1.31-1.05-3.7-1.19-5.53-1-2,.17-3.91,1.19-5.85,1.84-16.27,5.47-16.27,5.47-24-11.4,5.37-4.23,10.72-8.89,16.53-12.87,4.47-3.07,3.26-6.42,1.55-10-1.91-4-.94-10.23-8.3-10.08-6.87.15-13.74-.35-21-.58-1.16-6.27-2.21-12-3.38-18.32,6-2.1,11.41-4.82,17.1-5.78,9.69-1.65,7-8.69,7.78-14.69.88-6.65-3.68-7.45-8.09-9-5.28-1.8-10.48-3.84-15-5.52-.5-1.21-.7-1.46-.68-1.68,1.42-16.81,1.42-16.81,18-17.53,9.83-.43,14.13-4.32,14.82-14.14.13-1.87-1.21-4.37-2.66-5.72-4.69-4.35-9.75-8.29-14.58-12.32a4.54,4.54,0,0,1,0-1.69c8.57-18.82,5.27-16.21,22.92-10.53,5.85,1.89,9.72,1.93,13.66-3.68,3.82-5.44,7-9.69,1.3-15.91-3.38-3.7-5.51-8.53-8-12.58a8.28,8.28,0,0,1,.87-1.91c11.58-11.72,12-12.28,25-1.64,7.1,5.83,11.12,1.61,16.71-1.34,5.93-3.13,5-7.35,3.73-12.28s-2.26-10-3.51-15.65l17-7.8c3.79,5.59,7.58,10.72,10.86,16.16,2.33,3.84,5.28,4.77,9,3,4.52-2.18,12.09.37,12.53-8.35.31-6.36,1.33-12.68,2.1-19.63l18.38-1.91c1.65,5.87,3.66,11.64,4.82,17.57,1,5.19,3.4,7.53,8.76,7.35,5.55-.19,12.21,2.78,14.13-5.92a4,4,0,0,1,.32-.7c7.2-15.76,7.2-15.76,25.19-11-.32,6.28-.34,12.83-1.08,19.3-1,8.64,6.78,7.55,11,10.36,3.48,2.33,6.74,2.84,10-1.19,3.85-4.75,8.45-8.88,13.27-13.83,4.19,2.5,8.51,4.67,12.29,7.55,1.26,1,2,4,1.48,5.59a67.64,67.64,0,0,1-5.55,12.67c-2.74,4.84-1.39,7.74,2.17,11.9,6.13,7.14,11.71,8.48,19.34,2.79,3.63-2.71,8-4.42,11.7-6.39a6.05,6.05,0,0,1,1.28.58c11.79,12.19,11.79,12.19.51,24.77-7.18,8-7.15,14.29.66,22,1.28,1.27,4.14,1.56,6.17,1.34,6.6-.72,13.16-1.88,20.25-2.95l6,17.47c-5.71,3.14-11.61,6.63-17.72,9.68-3.69,1.84-5.14,3.76-4.35,8.31,2.18,12.79,1.89,12.83,14.74,15.35,4.48.88,8.95,1.84,13.92,2.86,0,6-.06,11.54-.1,17.86-7.2,1.37-14.14,3-21.18,4-8.59,1.14-5.57,8.4-7.42,13.08-1.69,4.31-.26,7.19,4,9.3,5.94,3,11.63,6.41,17.06,9.45.26,1.12.55,1.63.46,2.07-3.34,15.68-3.32,15.51-18.83,13.5-6.07-.79-12.2-4.09-17.16,4.53-4.25,7.37-4.9,12.14,1.85,17.4a32.49,32.49,0,0,1,4.18,4.49c7.24,8.25,7,8.11.63,16.72-3.11,4.19-5.94,5.87-10.68,2.56-2.71-1.9-6.21-2.72-8.78-4.74-6.34-5-11.21-4.49-17.16,1.36-4.48,4.4-5.76,7.8-2.62,13.14,1.41,2.4,2.11,5.22,3.16,7.84,4.53,11.32,4.27,12.29-7.16,17.53a7.62,7.62,0,0,1-6.55-.85c-3.22-2.45-5.78-5.78-8.59-8.76-7.14-7.53-14.34-8.24-22.06-1.74-1.21,1-1.67,3.54-1.61,5.35a106.55,106.55,0,0,0,1.31,16.08c.95,5.17-.77,7.61-5.76,8.5C2808.35,2090.1,2804.69,2091.19,2800.35,2092.24ZM2685,1891.59c-21.58,46.38-.92,103.24,45.28,124.6,47.45,21.94,104.58.67,126.66-47.15,21.31-46.18-.12-103.18-46.91-124.79C2763.08,1822.55,2707.35,1843.65,2685,1891.59Z"/><path class="cls-17" d="M2737.5,2004.33c-41.59-18.56-59.42-65.71-40.75-107.74a81.13,81.13,0,0,1,107.75-41.1c40.35,18.1,59.37,67.31,41.53,107.46C2827.64,2004.33,2779,2022.86,2737.5,2004.33Zm66.5-59.1a37.44,37.44,0,0,0-19.07-49.61c-18.64-8.11-40.87,1-49.32,20.11-8.19,18.55.59,40.41,19.57,48.7A36.88,36.88,0,0,0,2804,1945.23Z"/><path class="cls-17" d="M2215.85,1829a2.17,2.17,0,0,1,1.08,2.59c-1.28,7.51-2.52,15-3.63,22.58a2.3,2.3,0,0,1-2,2.19q-16.71,4.88-33.38,9.84l-3,.88c2,19.17,4,38.26,6,57.49l22,1.78c5.29.42,10.58.89,15.87,1.25a2.3,2.3,0,0,1,2.34,1.83q3.87,10.53,8,21a2.58,2.58,0,0,1-.63,3.28c-8.19,8.52-16.28,17.13-24.47,25.64-1.18,1.23-1.43,2-.33,3.51q15.9,21.74,31.65,43.59c.3.42.61.83,1,1.4l6.07-2.84c9.33-4.43,18.68-8.83,28-13.34,1.48-.72,2.29-.41,3.47.57,5.62,4.7,11.38,9.22,17,13.9a3.17,3.17,0,0,1,1.19,2.43c-2.76,11.9-5.64,23.78-8.51,35.65L2337,2088l5.4-7.82c5.07-7.32,10.17-14.62,15.17-22a2.47,2.47,0,0,1,3-1.13c7.29,1.26,14.59,2.47,21.91,3.51a2.73,2.73,0,0,1,2.67,2.31c3.27,11.29,6.62,22.55,9.94,33.82.21.72.45,1.42.72,2.26l57.36-5.95c.1-.83.22-1.61.28-2.4,1-11.71,1.93-23.41,2.81-35.11a2.72,2.72,0,0,1,2.12-2.84c6.9-2.48,13.74-5.11,20.55-7.84,1.45-.57,2.3-.55,3.47.58,8.57,8.24,17.21,16.4,25.83,24.6.83.8,1.42,1.53,2.78.54q22.47-16.41,45-32.71a3.06,3.06,0,0,0,.39-.49c-1.2-2.55-2.43-5.18-3.67-7.8-4.15-8.72-8.26-17.46-12.47-26.15a2.57,2.57,0,0,1,.47-3.3q7.11-8.52,14-17.25a2.49,2.49,0,0,1,3-1c11.69,2.87,23.41,5.65,35.13,8.45.58.14,1.17.21,1.76.32l23.47-52.48-23.55-16.42c-2.58-1.8-5.12-3.65-7.76-5.35a2.15,2.15,0,0,1-1.08-2.58c1.27-7.51,2.52-15,3.63-22.56a2.28,2.28,0,0,1,2-2.21q16.7-4.87,33.37-9.84l3-.89c-2-19.13-4-38.21-6-57.48l-15.24-1.25c-7.53-.61-15-1.24-22.58-1.8a2.27,2.27,0,0,1-2.39-1.74q-3.95-10.74-8.19-21.37c-.55-1.36-.12-2,.71-2.88,8.15-8.54,16.26-17.13,24.46-25.63,1.23-1.28,1.52-2.08.34-3.69-10.48-14.3-20.85-28.67-31.25-43-.43-.6-.87-1.19-1.4-1.89l-18.1,8.58c-5.4,2.57-10.83,5.1-16.2,7.74a2.3,2.3,0,0,1-2.93-.45q-8.61-7.15-17.41-14.11a2.48,2.48,0,0,1-1-3c2.86-11.7,5.65-23.41,8.45-35.12.14-.58.21-1.17.32-1.76l-52.49-23.47-17.7,25.39c-1.32,1.9-2.72,3.76-3.93,5.73a2.41,2.41,0,0,1-2.93,1.23c-7.29-1.27-14.58-2.49-21.91-3.53a2.86,2.86,0,0,1-2.8-2.43c-3.31-11.51-6.73-23-10.12-34.46-.12-.43-.28-.85-.49-1.5l-57.44,6c-.35,4.25-.69,8.4-1,12.56-.69,8.42-1.41,16.83-2,25.26a2.44,2.44,0,0,1-2,2.46c-6.94,2.56-13.88,5.16-20.74,7.93a2.72,2.72,0,0,1-3.45-.68c-8.46-8.13-17-16.17-25.47-24.31-1.28-1.24-2.09-1.51-3.69-.34-14.36,10.53-28.8,20.94-43.21,31.38l-1.69,1.27c2.89,6.09,5.73,12.1,8.58,18.1,2.54,5.34,5,10.71,7.65,16,.69,1.38.44,2.16-.51,3.3q-7.11,8.52-14,17.24a2.46,2.46,0,0,1-3,1c-11.69-2.87-23.4-5.65-35.11-8.45-.58-.14-1.18-.21-1.76-.31l-23.47,52.48,23.55,16.42C2210.67,1825.42,2213.22,1827.27,2215.85,1829Zm239-76c66,29.55,95.61,107.23,66,173.35-29.5,65.81-107.13,95.4-173,65.94a131.17,131.17,0,0,1-66.12-173.3C2311.2,1753.07,2388.86,1723.48,2454.87,1753Z"/><path class="cls-18" d="M2791,2090.18c-3.17-7-5.87-13.91-9.48-20.33-1.23-2.21-4.9-4.64-7.15-4.37-4.73.57-11.46-2.61-13.58,5.13-1.36,4.94-3.06,9.84-3.88,14.87-.93,5.78-3.74,7.83-9.4,6.77-3.48-.66-7.05-.83-11.08-1.27-.6-7.79-.73-15.23-2-22.48-.41-2.36-3.45-5.34-5.87-6.05-4.36-1.27-9.41-5.8-13.64.6-3,4.49-6.31,8.75-9,13.38-2.28,3.86-4.65,4.56-8.77,2.63-14.57-6.81-11.56-3.73-9-17.76.28-1.5.87-3,1.23-4.45,1.95-8-3.62-16.48-11.7-17.28-1.68-.17-3.7,1.27-5.29,2.37-2.73,1.89-5.23,4.12-7.86,6.17s-5.27,4-8.73,6.68c-3.73-3.32-7.81-6.36-11-10.13-1.13-1.31-.85-4.71,0-6.63,1.51-3.49,3.94-6.57,6-9.85,5.6-9.11,4.94-13.63-3.44-20.36-1.31-1-3.7-1.19-5.53-1-2,.17-3.91,1.19-5.85,1.84-16.27,5.47-16.27,5.47-24-11.41,5.37-4.22,10.72-8.88,16.53-12.86,4.47-3.07,3.26-6.43,1.55-10-1.91-4-.94-10.24-8.3-10.08-6.87.14-13.74-.36-21-.58l-3.38-18.32c6-2.11,11.41-4.82,17.1-5.79,9.69-1.64,7-8.69,7.78-14.68.88-6.65-3.68-7.45-8.09-9-5.28-1.81-10.48-3.84-15-5.52-.5-1.21-.7-1.46-.68-1.69,1.42-16.8,1.42-16.8,18-17.52,9.83-.43,14.13-4.32,14.82-14.14.13-1.87-1.21-4.37-2.66-5.72-4.69-4.35-9.75-8.3-14.58-12.33a4.75,4.75,0,0,1,0-1.68c8.58-18.83,5.28-16.21,22.93-10.53,5.85,1.89,9.71,1.92,13.66-3.68,3.82-5.44,7-9.69,1.3-15.91-3.38-3.7-5.51-8.53-8-12.58a8.06,8.06,0,0,1,.87-1.91c11.58-11.72,12-12.29,25-1.64,7.1,5.83,11.12,1.6,16.71-1.34,5.93-3.13,5-7.36,3.73-12.29s-2.26-10-3.51-15.65l16.95-7.79c3.79,5.59,7.58,10.72,10.86,16.15,2.33,3.85,5.27,4.78,9,3,4.52-2.17,12.09.38,12.53-8.34.31-6.36,1.33-12.69,2.1-19.64l18.38-1.9c1.65,5.87,3.66,11.64,4.82,17.57,1,5.19,3.4,7.53,8.76,7.34,5.55-.19,12.21,2.79,14.13-5.91a3.68,3.68,0,0,1,.32-.7c7.2-15.76,7.2-15.76,25.19-11-.32,6.29-.34,12.84-1.08,19.31-1,8.64,6.77,7.55,11,10.35,3.48,2.33,6.74,2.85,10-1.19,3.85-4.74,8.45-8.87,13.27-13.82,4.19,2.5,8.51,4.67,12.29,7.55,1.26,1,2,4,1.48,5.58a67.36,67.36,0,0,1-5.55,12.67c-2.74,4.85-1.39,7.75,2.17,11.9,6.13,7.15,11.71,8.49,19.34,2.79,3.63-2.7,8-4.41,11.7-6.39a6.4,6.4,0,0,1,1.28.59c11.79,12.18,11.79,12.18.51,24.77-7.18,8-7.15,14.29.66,22,1.28,1.27,4.14,1.56,6.17,1.34,6.6-.72,13.16-1.88,20.25-3,2,5.73,3.88,11.24,6,17.47-5.71,3.15-11.61,6.64-17.72,9.69-3.69,1.84-5.14,3.76-4.36,8.31,2.19,12.78,1.9,12.82,14.75,15.35,4.48.88,9,1.83,13.92,2.86,0,6-.06,11.54-.1,17.85-7.2,1.38-14.14,3-21.18,4-8.59,1.14-5.57,8.4-7.42,13.07-1.7,4.32-.26,7.19,4,9.3,5.95,3,11.64,6.42,17.06,9.46.27,1.11.56,1.63.46,2.07-3.33,15.68-3.31,15.51-18.82,13.5-6.07-.79-12.2-4.1-17.16,4.53-4.25,7.37-4.9,12.14,1.85,17.39a33.68,33.68,0,0,1,4.18,4.49c7.24,8.26,7,8.12.63,16.73-3.11,4.19-5.94,5.87-10.68,2.55-2.72-1.89-6.21-2.71-8.78-4.74-6.34-5-11.22-4.48-17.16,1.37-4.48,4.4-5.77,7.8-2.62,13.14,1.41,2.4,2.11,5.22,3.16,7.84,4.53,11.32,4.27,12.28-7.16,17.53a7.65,7.65,0,0,1-6.55-.85c-3.22-2.45-5.78-5.78-8.59-8.76-7.14-7.54-14.34-8.24-22.06-1.75-1.21,1-1.67,3.55-1.62,5.35a107.9,107.9,0,0,0,1.32,16.09c.95,5.17-.77,7.61-5.76,8.5C2799,2088,2795.35,2089.12,2791,2090.18ZM2675.7,1889.53c-21.58,46.38-.92,103.24,45.28,124.6,47.45,21.94,104.58.67,126.66-47.15,21.31-46.18-.12-103.19-46.91-124.8C2753.74,1820.49,2698,1841.59,2675.7,1889.53Z"/><path class="cls-18" d="M2728.16,2002.27c-41.59-18.56-59.42-65.72-40.75-107.75a81.14,81.14,0,0,1,107.75-41.09c40.35,18.1,59.37,67.3,41.53,107.46C2818.3,2002.26,2769.69,2020.8,2728.16,2002.27Zm66.5-59.1a37.44,37.44,0,0,0-19.07-49.61c-18.64-8.11-40.87,1-49.33,20.11-8.18,18.55.6,40.4,19.58,48.69A36.87,36.87,0,0,0,2794.66,1943.17Z"/><path class="cls-18" d="M2206.51,1826.91a2.17,2.17,0,0,1,1.08,2.59c-1.28,7.51-2.52,15-3.63,22.57a2.3,2.3,0,0,1-2,2.2q-16.71,4.88-33.38,9.83l-3,.88c2,19.18,4,38.26,6,57.5l22,1.77c5.3.43,10.59.9,15.88,1.26a2.29,2.29,0,0,1,2.34,1.83q3.87,10.53,8,21a2.57,2.57,0,0,1-.62,3.28c-8.19,8.52-16.28,17.12-24.47,25.64-1.18,1.22-1.43,2-.33,3.51q15.9,21.74,31.65,43.59c.3.42.61.83,1,1.4,2-1,4.06-1.89,6.07-2.85,9.33-4.42,18.68-8.82,28-13.33,1.48-.72,2.29-.42,3.47.57,5.62,4.69,11.38,9.22,17,13.89a3.22,3.22,0,0,1,1.19,2.44c-2.76,11.9-5.64,23.77-8.51,35.65l53.31,23.84,5.4-7.82c5.07-7.32,10.17-14.62,15.17-22a2.45,2.45,0,0,1,3-1.13c7.3,1.26,14.6,2.47,21.92,3.51a2.71,2.71,0,0,1,2.66,2.31q4.92,16.93,9.95,33.82c.21.71.45,1.41.72,2.25l57.36-5.94c.1-.83.22-1.62.28-2.41,1-11.7,1.93-23.4,2.81-35.11a2.72,2.72,0,0,1,2.12-2.83c6.9-2.48,13.74-5.12,20.55-7.84,1.45-.58,2.3-.55,3.47.57,8.56,8.25,17.21,16.41,25.83,24.61.83.8,1.42,1.52,2.77.53q22.48-16.41,45-32.7a3.06,3.06,0,0,0,.39-.49c-1.2-2.55-2.43-5.18-3.68-7.8-4.14-8.72-8.25-17.46-12.46-26.15a2.58,2.58,0,0,1,.47-3.31q7.11-8.51,14-17.24a2.48,2.48,0,0,1,3-1.06c11.69,2.88,23.41,5.66,35.13,8.46.58.14,1.17.21,1.76.32l23.47-52.49-23.55-16.42c-2.58-1.79-5.12-3.64-7.76-5.34a2.15,2.15,0,0,1-1.08-2.58c1.27-7.51,2.52-15,3.63-22.57a2.3,2.3,0,0,1,2-2.21q16.7-4.87,33.37-9.83l3-.89c-2-19.13-4-38.21-6-57.48l-15.24-1.25c-7.53-.61-15.05-1.25-22.58-1.8a2.27,2.27,0,0,1-2.39-1.75q-3.95-10.74-8.19-21.36c-.55-1.36-.12-2,.71-2.88,8.15-8.54,16.26-17.13,24.46-25.64,1.23-1.28,1.52-2.08.34-3.69-10.48-14.29-20.85-28.67-31.25-43l-1.4-1.89-18.1,8.59c-5.4,2.56-10.83,5.1-16.2,7.73a2.3,2.3,0,0,1-2.93-.44q-8.61-7.15-17.41-14.11a2.49,2.49,0,0,1-1-3c2.86-11.7,5.65-23.41,8.45-35.12.14-.58.21-1.17.31-1.76l-52.48-23.47-17.7,25.39c-1.32,1.9-2.72,3.76-3.93,5.73a2.42,2.42,0,0,1-2.93,1.23c-7.29-1.27-14.58-2.49-21.91-3.53a2.88,2.88,0,0,1-2.8-2.44c-3.31-11.5-6.73-23-10.12-34.46-.12-.42-.28-.84-.49-1.49l-57.44,6c-.35,4.25-.7,8.4-1,12.55-.68,8.42-1.4,16.84-2,25.27a2.42,2.42,0,0,1-2,2.45c-6.94,2.56-13.88,5.17-20.74,7.94a2.71,2.71,0,0,1-3.45-.69c-8.46-8.12-17-16.17-25.47-24.3-1.28-1.24-2.09-1.52-3.69-.34-14.36,10.52-28.8,20.93-43.21,31.38l-1.69,1.27,8.58,18.1c2.54,5.34,5,10.7,7.65,16,.69,1.38.44,2.16-.51,3.29q-7.11,8.52-14,17.25a2.46,2.46,0,0,1-3,1c-11.69-2.87-23.4-5.65-35.11-8.45-.58-.14-1.18-.21-1.76-.32l-23.47,52.48,23.55,16.43C2201.33,1823.36,2203.87,1825.21,2206.51,1826.91Zm239-76c66,29.55,95.6,107.23,66,173.35-29.5,65.81-107.14,95.4-173,65.93a131.17,131.17,0,0,1-66.12-173.3C2301.86,1751,2379.52,1721.42,2445.53,1751Z"/><rect class="cls-19" x="1346.31" y="473.52" width="1779.97" height="1306.38" rx="93.59"/><rect class="cls-20" x="1402.56" y="527.97" width="1667.45" height="1197.49" rx="86.72"/><rect class="cls-13" x="2512.3" y="1365.93" width="507.8" height="259.82" rx="43.58"/><rect class="cls-13" x="1438.91" y="654.36" width="293.06" height="259.82" rx="33.11"/><rect class="cls-6" x="1438.91" y="967.84" width="293.06" height="259.82" rx="33.11"/><rect class="cls-13" x="1438.91" y="1281.32" width="293.06" height="259.82" rx="33.11"/><rect class="cls-6" x="1821.11" y="1353.1" width="63.2" height="237.4"/><rect class="cls-6" x="1932.1" y="1383.93" width="63.2" height="206.56"/><rect class="cls-6" x="2043.09" y="1445.59" width="63.2" height="144.9"/><rect class="cls-6" x="2154.08" y="1399.35" width="63.2" height="191.15"/><rect class="cls-6" x="2265.07" y="1445.59" width="63.2" height="144.9"/><rect class="cls-6" x="2376.06" y="1399.35" width="63.2" height="191.15"/><rect class="cls-6" x="1797.98" y="1610.54" width="665.94" height="9.25"/><rect class="cls-6" x="1766.82" y="581.68" width="12.85" height="974.99"/><path class="cls-21" d="M2110.08,925.75H2738.8c62.19,0,106.36-62.32,83.85-120.3-9.29-23.93-23.72-44.63-61.93-54.62-31.47-11.11-82.64,17.92-82.95,36,0,0,41.37-143.1-93.39-211.18s-239,23.62-244.53,68.08c0,0-100.48-36.17-150.49,22.94-47.64,56.3-35.68,120.16-35.68,120.16s-65.3-33.34-101.42,5.56c-.75.81-1.49,1.62-2.21,2.44C2005.18,845.61,2042.3,925.75,2110.08,925.75Z"/><path class="cls-22" d="M2013.73,834.46s0-60.25,60.62-74"/><path class="cls-22" d="M2807,751.31s62.07,39.48,32.24,128"/><path class="cls-23" d="M2139.87,1016.61a16.65,16.65,0,1,0,16.64,16.64A16.65,16.65,0,0,0,2139.87,1016.61Zm0,26.05a9.41,9.41,0,1,1,9.41-9.41A9.41,9.41,0,0,1,2139.87,1042.66Z"/><path class="cls-23" d="M2178.09,934.05v94.74h-24v9.93h24a9.92,9.92,0,0,0,9.93-9.93h0V934.05Z"/><path class="cls-23" d="M2715.63,993.51a16.65,16.65,0,1,0,16.64-16.64A16.65,16.65,0,0,0,2715.63,993.51Zm7.24,0a9.41,9.41,0,1,1,9.4,9.41A9.41,9.41,0,0,1,2722.87,993.51Z"/><path class="cls-23" d="M2694.05,934.05v55H2718V999h-23.95a9.94,9.94,0,0,1-9.93-9.93h0v-55Z"/><rect class="cls-23" x="2276.71" y="934.05" width="9.93" height="109.58"/><path class="cls-23" d="M2281.84,1040.45a16.64,16.64,0,1,0,16.64,16.64A16.65,16.65,0,0,0,2281.84,1040.45Zm0,26a9.41,9.41,0,1,1,9.41-9.41A9.41,9.41,0,0,1,2281.84,1066.5Z"/><rect class="cls-23" x="2483.17" y="934.05" width="9.93" height="109.58"/><path class="cls-23" d="M2488.3,1040.45a16.64,16.64,0,1,0,16.64,16.64A16.64,16.64,0,0,0,2488.3,1040.45Zm0,26a9.41,9.41,0,1,1,9.41-9.41A9.41,9.41,0,0,1,2488.3,1066.5Z"/><rect class="cls-23" x="2381.46" y="934.05" width="9.93" height="213.61"/><path class="cls-23" d="M2386.58,1144.48a16.65,16.65,0,1,0,16.65,16.64A16.64,16.64,0,0,0,2386.58,1144.48Zm0,26a9.41,9.41,0,1,1,9.41-9.41A9.4,9.4,0,0,1,2386.58,1170.53Z"/><rect class="cls-23" x="2582.48" y="933.62" width="9.93" height="80.35"/><path class="cls-23" d="M2587.61,1010.78a16.65,16.65,0,1,0,16.64,16.65A16.64,16.64,0,0,0,2587.61,1010.78Zm0,26.06a9.41,9.41,0,1,1,9.4-9.41A9.41,9.41,0,0,1,2587.61,1036.84Z"/><rect class="cls-6" x="2285.9" y="672.96" width="95.64" height="153.86"/><polygon class="cls-6" points="2248.55 826.81 2418.66 826.81 2334.44 911.04 2248.55 826.81"/><rect class="cls-4" x="2472.88" y="667.49" width="95.64" height="153.86"/><polygon class="cls-4" points="2605.88 667.49 2435.76 667.49 2519.99 583.27 2605.88 667.49"/><rect class="cls-24" x="1930.83" y="1716.88" width="42.14" height="628.12"/><rect class="cls-24" x="906.07" y="1716.88" width="42.14" height="628.12"/><rect class="cls-25" x="837.5" y="1680.89" width="1209.44" height="25.2"/><rect class="cls-26" x="837.5" y="1706.08" width="1209.44" height="25.2"/><rect class="cls-5" x="1249.19" y="1647.14" width="491.34" height="33.75"/><path class="cls-2" d="M1656.89,1551.47s84.59-15.6,115.79-15,97.78,15.6,112.18,52.8-61.74,36.59-106.46,0l-102.91,44.39Z"/><path class="cls-5" d="M1629.39,2261.6s-27.18,101.57-12.12,114.37,27.21,10.74,93.38,10.74c71.54,0,126.28,2.84,130-34.06s-2.12-75.82-62.37-69.74c-61.81,6.23-52.37,1.09-66.17-21.31Z"/><path class="cls-26" d="M1545.7,1762.78s117-23.4,170.08-18,39.6,191.67,39.6,191.67l-36.9,326.66s-21.6,34.2-98.09,5.4c0,0,1.5-305.06-21-327.56l-53.7-61.19Z"/><path class="cls-27" d="M1293.9,1172.79s15.53,60.15,4.24,85.56h76.24s-11.74-75-6.49-94.6l-27.11-24.29Z"/><path class="cls-1" d="M1402.69,1019.18l5-10.27s44.72-24.18,39.08-88.1c0,0-64.58,14.13-104.33,3.25s-94.4,4.7-103,38.48c0,0-40.58,8-46.54,49.69s18.38,110.3,48.69,142.09,64.59,30.81,84.46,25.84,20.7-15.57,20.7-15.57l24.18-21.86Z"/><g class="cls-28"><path class="cls-29" d="M1227.27,1148s80.58,19.58,83.21-29.37-7.15-93.95,20-109.67,82.46-11.57,122.37-54.87l-64.38,145.72-54.29,89.61-92.94,4.9Z"/></g><path class="cls-2" d="M1407.66,1008.91s18.88,63.27,13.25,109.31-21.2,86.78-59,59.62c-13.58-11.59-15.24-13.25-15.24-13.25s11.27-18.88,9.28-42.39c0,0-21.2-7.62-16.56-26.83s17.88-24.52,26.49-17.56c0,0-3-33.45,3.32-43.39S1407.66,1008.91,1407.66,1008.91Z"/><g class="cls-30"><path class="cls-27" d="M1353.41,1137.88l2.17-.58s9.83-5.35,6.58-22.43,14.55-18.36,16.52-31.92-7.06-34,4.38-43.91,28.38-16.8,30.92-22.59l-3.38-16.8-65.78,29.7-25.23,56.85,12.73,43.68Z"/></g><rect class="cls-31" x="1280.86" y="1226.41" width="114.38" height="34.8"/><path class="cls-19" d="M1760.78,2301.19s-27.19,101.57-12.13,114.37,27.22,10.74,93.38,10.74c71.54,0,126.28,2.84,130-34.06s-2.13-75.81-62.37-69.74c-61.82,6.23-52.38,1.09-66.17-21.31Z"/><path class="cls-3" d="M1542.1,1797.62l25.2,7.45s150.51,1.47,198,4.5c67.14,4.28,179.08-2.7,164.62,112.48-9.38,74.67-83.12,384.8-83.12,384.8s-33.94,20.23-91.39-5.95c0,0,32-248.41,31.49-295.86s-83.69-39.8-194.37-27.19c-101.68,11.58-261.22,13.07-311.64-34Z"/><g class="cls-32"><path class="cls-33" d="M1527,1876.61l-18.14,54.76s203.52-47.45,280.33-39.55,97.71,317.8,97.71,317.8l57.24-363.55s-183.75-90.36-186-90.36S1561,1788.87,1561,1788.87l-20.52,94.87"/></g><path class="cls-4" d="M1285.9,1261.21h-12.68s-75.81,5.93-86.6,69.06-8.8,236-8,265.46,1.53,189.2,32.46,260.42,68.34,94.41,155.39,97.56,173.37-.44,203.59-111.23-32.7-124.61-32.7-124.61-24.85-104.88-22-150.2c0,0,37.46,86.58,80.62,101.68s96-33.92,96-33.92,8.7-80.19-29.39-94.59c0,0-28.84,3.46-40.77-1.67-11.22-4.82-29.18-48.12-56.29-133.9s-48.87-113.13-83.94-126.08-86.33-18-86.33-18Z"/><g class="cls-34"><path class="cls-31" d="M1520.42,1597.17l-5-29.5s-43.16-61.14-29.49-220.49c0,0-51.08,223.91,7.19,354.57s105,128.5,105,128.5l-1.43-116.54Z"/></g><path class="cls-5" d="M1526.81,1986.85s6.3-29.7,5.4-117.89-28.8-90.89-92.69-90-217.77,25.2-252-21.59-63-191.68-71.09-242.07-26.1-194.38-34.2-262.77-14.39-185.37-113.38-151.18,6.3,553.43,18.9,613.72,48.59,276.69,159.28,280.53S1526.81,1986.85,1526.81,1986.85Z"/><g class="cls-35"><path class="cls-36" d="M906.07,1069.17s48.86-58.61,82.61,4.56,25.64,312.59,64.79,485.07,108,380.43,221.37,437.54h0L979.23,2012s-62.09-413.37-64.79-421.51-52.65-362.85-52.65-362.85Z"/></g><path class="cls-37" d="M3568.83,2268.35s32.13,64,89.28,87.73,137.28-6.18,182.21-41.48,88.53-85.51,92.87-122.95-71-22.67-71-22.67,33.3-45.49,47.16-78-2.38-66.39-47.91-46.21L3815.88,2065s34.92-70.71,34.29-114.87-26.65-110.4-75.73-63.62-54.09,144.86-54.09,144.86-10.92-41.81-26.46-72.39-47.81-26.61-62.7,16-20.59,103.62-20.59,103.62-14.22-47.07-37.45-39.59-36.77,62.65-32.87,116.8S3568.83,2268.35,3568.83,2268.35Z"/><path class="cls-38" d="M3579,2153.84s1.7-232.94,180.16-315.92c0,0,81.67,195.65-42.34,363.4s-98.62,128.75-98.62,128.75Z"/><line class="cls-39" x1="3715.1" y1="1946.9" x2="3613.58" y2="2292.84"/><rect class="cls-15" x="2825.17" y="1548.7" width="838.84" height="136.78" rx="9.63"/><ellipse class="cls-19" cx="2909.19" cy="1617.09" rx="17.77" ry="18.3"/><ellipse class="cls-19" cx="2983.74" cy="1617.09" rx="17.77" ry="18.3"/><ellipse class="cls-19" cx="3058.29" cy="1617.09" rx="17.77" ry="18.3"/><rect class="cls-19" x="3446.58" y="1582.05" width="20.48" height="69.79" rx="1.73"/><rect class="cls-19" x="3480.31" y="1582.05" width="20.48" height="69.79" rx="1.73"/><rect class="cls-19" x="3514.04" y="1582.05" width="20.48" height="69.79" rx="1.73"/><rect class="cls-19" x="3547.77" y="1582.05" width="20.48" height="69.79" rx="1.73"/><rect class="cls-5" x="2858.14" y="1685.49" width="771.54" height="24.66"/><rect class="cls-15" x="2825.17" y="1710.14" width="838.84" height="136.78" rx="9.63"/><ellipse class="cls-19" cx="2909.19" cy="1778.53" rx="17.77" ry="18.3"/><ellipse class="cls-19" cx="2983.74" cy="1778.53" rx="17.77" ry="18.3"/><ellipse class="cls-19" cx="3058.29" cy="1778.53" rx="17.77" ry="18.3"/><rect class="cls-19" x="3446.58" y="1743.49" width="20.48" height="69.79" rx="1.73"/><rect class="cls-19" x="3480.31" y="1743.49" width="20.48" height="69.79" rx="1.73"/><rect class="cls-19" x="3514.04" y="1743.49" width="20.48" height="69.79" rx="1.73"/><rect class="cls-19" x="3547.77" y="1743.49" width="20.48" height="69.79" rx="1.73"/><rect class="cls-5" x="2858.14" y="1846.92" width="771.54" height="24.66"/><rect class="cls-15" x="2825.17" y="1871.58" width="838.84" height="136.78" rx="9.63"/><ellipse class="cls-19" cx="2909.19" cy="1939.97" rx="17.77" ry="18.3"/><ellipse class="cls-19" cx="2983.74" cy="1939.97" rx="17.77" ry="18.3"/><ellipse class="cls-19" cx="3058.29" cy="1939.97" rx="17.77" ry="18.3"/><rect class="cls-19" x="3446.58" y="1904.92" width="20.48" height="69.79" rx="1.73"/><rect class="cls-19" x="3480.31" y="1904.92" width="20.48" height="69.79" rx="1.73"/><rect class="cls-19" x="3514.04" y="1904.92" width="20.48" height="69.79" rx="1.73"/><rect class="cls-19" x="3547.77" y="1904.92" width="20.48" height="69.79" rx="1.73"/><rect class="cls-5" x="2858.14" y="2008.36" width="771.54" height="24.66"/><rect class="cls-15" x="2825.17" y="2033.02" width="838.84" height="136.78" rx="9.63"/><ellipse class="cls-19" cx="2909.19" cy="2101.41" rx="17.77" ry="18.3"/><ellipse class="cls-19" cx="2983.74" cy="2101.41" rx="17.77" ry="18.3"/><ellipse class="cls-19" cx="3058.29" cy="2101.41" rx="17.77" ry="18.3"/><rect class="cls-19" x="3446.58" y="2066.36" width="20.48" height="69.79" rx="1.73"/><rect class="cls-19" x="3480.31" y="2066.36" width="20.48" height="69.79" rx="1.73"/><rect class="cls-19" x="3514.04" y="2066.36" width="20.48" height="69.79" rx="1.73"/><rect class="cls-19" x="3547.77" y="2066.36" width="20.48" height="69.79" rx="1.73"/><rect class="cls-5" x="2858.14" y="2169.8" width="771.54" height="24.66"/><rect class="cls-15" x="2825.17" y="2194.46" width="838.84" height="136.78" rx="9.63"/><ellipse class="cls-19" cx="2909.19" cy="2262.85" rx="17.77" ry="18.3"/><ellipse class="cls-19" cx="2983.74" cy="2262.85" rx="17.77" ry="18.3"/><ellipse class="cls-19" cx="3058.29" cy="2262.85" rx="17.77" ry="18.3"/><rect class="cls-19" x="3446.58" y="2227.8" width="20.48" height="69.79" rx="1.73"/><rect class="cls-19" x="3480.31" y="2227.8" width="20.48" height="69.79" rx="1.73"/><rect class="cls-19" x="3514.04" y="2227.8" width="20.48" height="69.79" rx="1.73"/><rect class="cls-19" x="3547.77" y="2227.8" width="20.48" height="69.79" rx="1.73"/><rect class="cls-5" x="2858.14" y="2331.24" width="771.54" height="24.66"/><path class="cls-19" d="M1780.12,1681.49s1.8-40,50.85-41.4,51.18,41.4,51.18,41.4Z"/><rect class="cls-38" x="1835.47" y="1165.25" width="382.22" height="18.9" rx="9.45"/><rect class="cls-13" x="1835.47" y="1200.65" width="561.53" height="18.9" rx="9.45"/><rect class="cls-13" x="1835.47" y="1236.04" width="561.53" height="18.9" rx="9.45"/><rect class="cls-13" x="1835.47" y="1271.44" width="561.53" height="18.9" rx="9.45"/><rect class="cls-13" x="1835.47" y="1306.84" width="561.53" height="18.9" rx="9.45"/><rect class="cls-13" x="2456.78" y="1165.25" width="561.53" height="18.9" rx="9.45"/><rect class="cls-38" x="2456.78" y="1200.65" width="561.53" height="18.9" rx="9.45"/><rect class="cls-38" x="2456.78" y="1236.04" width="561.53" height="18.9" rx="9.45"/><rect class="cls-13" x="2456.78" y="1271.44" width="561.53" height="18.9" rx="9.45"/><rect class="cls-13" x="2456.78" y="1306.84" width="561.53" height="18.9" rx="9.45"/><path class="cls-5" d="M1309.77,2077.69v216h44.54V2108.64C1338.85,2090.58,1322.36,2081.88,1309.77,2077.69Z"/><path class="cls-40" d="M1354.31,2108.64v-84.9h-44.54v54C1322.36,2081.88,1338.85,2090.58,1354.31,2108.64Z"/><rect class="cls-41" x="1159.07" y="2286.63" width="341.78" height="20.57"/><rect class="cls-42" x="1159.07" y="2307.2" width="341.78" height="30.78"/><path class="cls-43" d="M1133.72,2347.2a39,39,0,0,0,53.29,55.88C1180.34,2360,1153.24,2349.19,1133.72,2347.2Z"/><path class="cls-26" d="M1203.29,2371.4a39,39,0,0,0-69.57-24.2c19.52,2,46.62,12.78,53.29,55.88A39,39,0,0,0,1203.29,2371.4Z"/><path class="cls-43" d="M1470.28,2347.2a39,39,0,0,0,53.29,55.88C1516.89,2360,1489.79,2349.19,1470.28,2347.2Z"/><path class="cls-26" d="M1539.84,2371.4a39,39,0,0,0-69.56-24.2c19.51,2,46.61,12.78,53.29,55.88A38.94,38.94,0,0,0,1539.84,2371.4Z"/><rect class="cls-41" x="1094.86" y="1982.66" width="475.41" height="17.98"/><rect class="cls-42" x="1094.86" y="2000.64" width="475.41" height="33.37"/><rect class="cls-10" x="3727.35" y="1612.79" width="164.42" height="72.7"/><rect class="cls-13" x="3793.84" y="1685.49" width="164.42" height="72.7"/></g></g></svg>